# xmcd CD database file
#
# Track frame offsets:
#	150
#	23020
#	54507
#	74527
#	92745
#	111570
#	151027
#	202207
#	225600
#	268992
#
# Disc length: 3839 seconds
#
# Revision: 0
# Processed by: cddbd v1.4PL0 Copyright (c) Steve Scherf et al.
# Submitted via: NeoAudio 1.50.6
#
DISCID=8d0efd0a
DTITLE=Palæ Bar Allstars - 1990-200
DYEAR=2000
DGENRE=Jazz
TTITLE0=Bob Rockwell - My Little Brown Book
TTITLE1=Alex Riel - Did You Call Her Today
TTITLE2=Nicolai Gromin - Blue In Green
TTITLE3=Kenny Drew - Wisper Not
TTITLE4=Benjamin Koppel - Hermansgave
TTITLE5=Duke Jordan/Bent Jædig - My one and only Love
TTITLE6=Mads Vinding - Autumn Prelude
TTITLE7=Jacob Fischer - Wait Until Fall
TTITLE8=Tomas Franck - Fahrenheit 451
TTITLE9=Hugo Rasmussen - Bojangles
EXTD=YEAR: 2000
EXTT0=
EXTT1=
EXTT2=
EXTT3=
EXTT4=
EXTT5=
EXTT6=
EXTT7=
EXTT8=
EXTT9=
PLAYORDER=
